<svg width="140" height="32" viewBox="0 0 140 32" fill="none" xmlns="http://www.w3.org/2000/svg">
<path d="M66.7252 0.297363H59.7066C55.543 0.297363 51.7363 4.10406 51.0226 7.31595L47.5728 23.316C47.5728 23.316 50.0709 23.0186 51.32 22.0074C53.1043 20.6394 53.6397 19.3308 54.175 17.0111L54.8887 13.5018C55.0077 13.026 55.4241 12.6096 56.0188 12.6096C57.9222 12.6096 58.9928 10.8252 59.6471 8.9219H56.0188C55.543 8.9219 54.8887 8.56502 54.8887 7.73231C54.8887 6.95907 56.0783 5.71 56.8516 5.71H60.1824C63.4538 5.71 65.833 3.15238 66.7252 0.297363Z" fill="white"/>
<path fill-rule="evenodd" clip-rule="evenodd" d="M65.5355 11.3011C65.8329 9.87358 64.7623 8.62451 63.3942 8.62451C61.7883 8.62451 60.2418 9.93306 59.9444 11.4795L57.4463 23.3754C60.5392 23.078 63.6322 20.9963 64.2864 17.7249L65.5355 11.3011Z" fill="white"/>
<path d="M78.026 0C74.6951 0.535316 71.7211 3.15242 71.0074 6.54275L70.591 8.62454H69.7583C67.9739 8.62454 66.249 10.29 66.249 12.1338C66.249 13.5019 67.2007 14.3941 68.5687 14.3941H69.4609L68.1524 20.342C67.736 22.1859 69.0446 23.197 70.4126 23.197C72.197 23.197 73.565 21.829 73.8624 20.2825L78.026 0Z" fill="white"/>
<path fill-rule="evenodd" clip-rule="evenodd" d="M124.182 8.74341H114.19C111.335 8.74341 108.658 11.3605 108.658 14.2155C108.658 16.2973 110.264 17.7843 112.286 17.7843C112.881 17.7843 115.32 17.7843 115.974 17.7843C116.39 17.7843 116.747 18.0817 116.747 18.4981C116.747 19.0929 116.152 19.6282 115.617 19.6282H111.632C109.431 19.6282 107.468 21.1152 106.874 23.2564H117.104C119.9 23.2564 122.636 20.6393 122.636 17.7843C122.636 15.643 121.149 14.2155 119.007 14.2155C118.413 14.2155 115.855 14.156 115.26 14.2155C114.844 14.2155 114.487 13.9181 114.487 13.4423C114.487 12.8475 115.082 12.3122 115.617 12.3122H120.256C122.279 12.3122 123.706 10.4683 124.182 8.74341Z" fill="white"/>
<path d="M130.368 16.8921H138.279C138.517 16.1189 138.636 15.2862 138.636 14.4534C138.636 10.8847 136.257 8.74341 132.807 8.74341C128.405 8.74341 123.885 13.0259 123.885 17.5464C123.885 21.2341 126.74 23.3159 129.714 23.3159H136.732C136.732 23.078 136.197 21.8289 135.245 20.9962C134.472 20.3419 133.461 19.8661 131.855 19.9256H129.714C129 19.9256 128.524 19.6282 128.524 18.7955C128.584 17.7843 129.476 16.8921 130.368 16.8921ZM131.32 11.7769H133.401C134.115 11.7769 134.591 12.2527 134.591 12.9665C134.591 13.9181 133.699 14.8103 132.747 14.8103H130.665C130.011 14.8103 129.476 14.275 129.476 13.6207C129.476 12.6691 130.368 11.7769 131.32 11.7769Z" fill="white"/>
<path d="M85.58 8.74349H83.9741L85.3421 2.3197C85.6395 1.01115 84.5094 0 83.0819 0C81.4759 0 79.9294 1.30855 79.632 2.85502L75.29 23.4349C75.29 23.4349 76.2417 22.0669 77.4908 22.0669C79.0373 22.0669 79.751 23.2565 82.4871 23.2565C86.948 23.2565 91.409 18.974 91.409 14.4535C91.409 11.0632 88.9109 8.74349 85.58 8.74349ZM85.2826 17.7844H82.0707C81.238 17.7844 80.5837 17.1896 80.5837 16.3569C80.5837 15.1673 81.6544 14.0967 82.8439 14.0967H86.1153C86.948 14.0967 87.6023 14.6915 87.6023 15.5242C87.5428 16.7138 86.4127 17.7844 85.2826 17.7844Z" fill="white"/>
<path fill-rule="evenodd" clip-rule="evenodd" d="M100.926 8.74341C96.4051 8.74341 92.1226 12.907 92.1226 17.4869C92.1226 20.9367 94.6207 23.1969 97.9516 23.1969C100.569 23.1969 101.044 22.0668 102.888 22.0668C104.197 22.0668 105.03 23.4349 105.03 23.4349L108.182 8.74341H100.926ZM100.747 17.7843H97.5352C96.7025 17.7843 96.0482 17.1895 96.0482 16.3568C96.0482 15.1672 97.1188 14.0966 98.3084 14.0966H101.58C102.413 14.0966 103.067 14.6914 103.067 15.5241C103.007 16.7137 101.877 17.7843 100.747 17.7843Z" fill="white"/>
<path fill-rule="evenodd" clip-rule="evenodd" d="M35.3791 8.68408H29.5501C25.565 8.68408 21.6988 11.9555 20.8066 15.8811L19.2007 23.3161C22.2936 23.0187 25.3866 20.8774 26.0408 17.6655L26.3977 15.8811C26.5761 15.0484 27.4683 14.3346 28.2416 14.3346C31.394 14.4536 34.249 12.4313 35.3791 8.68408Z" fill="white"/>
<path d="M14.145 8.68408H5.9368L1 32.0001C1 32.0001 6.71004 31.8216 7.84015 26.29L8.49442 23.2566H11.052C15.6914 23.2566 19.9145 18.8551 19.9145 14.3346C19.9145 10.9443 17.4758 8.68408 14.145 8.68408ZM13.1933 17.7845H9.98141C9.1487 17.7845 8.49442 17.1897 8.49442 16.3569C8.49442 15.1674 9.56505 14.0967 10.7546 14.0967H14.026C14.8587 14.0967 15.513 14.6915 15.513 15.5242C15.513 16.7138 14.3829 17.7845 13.1933 17.7845Z" fill="white"/>
<path d="M41.8624 8.68408C37.3419 8.68408 32.9404 12.8477 32.9404 17.4871C32.9404 20.8774 35.4386 23.1971 38.7694 23.1971C43.2304 23.1971 47.6319 19.0335 47.6319 14.3941C47.6319 11.0633 45.1337 8.68408 41.8624 8.68408ZM41.446 17.7845H38.2341C37.4014 17.7845 36.7471 17.1897 36.7471 16.3569C36.7471 15.1674 37.8178 14.0967 39.0073 14.0967H42.2787C43.1114 14.0967 43.7657 14.6915 43.7657 15.5242C43.7657 16.7138 42.6356 17.7845 41.446 17.7845Z" fill="white"/>
<path d="M123.766 28.1934C124.063 29.6803 122.873 30.9889 121.446 30.9889H116.331C115.26 30.9889 114.368 30.2751 114.189 29.2045C113.892 27.7175 115.022 26.409 116.45 26.409H121.624C122.576 26.3495 123.528 27.1227 123.766 28.1934Z" fill="white"/>
<path d="M135.781 28.1934C136.078 29.6803 134.889 30.9889 133.461 30.9889H128.346C127.275 30.9889 126.383 30.2751 126.205 29.2045C125.907 27.7175 127.037 26.409 128.465 26.409H133.64C134.651 26.3495 135.602 27.1227 135.781 28.1934Z" fill="white"/>
<path d="M111.691 28.1934C111.989 29.6803 110.799 30.9889 109.372 30.9889H104.256C103.186 30.9889 102.294 30.2751 102.115 29.2045C101.818 27.7175 102.948 26.409 104.375 26.409H109.55C110.561 26.3495 111.513 27.1227 111.691 28.1934Z" fill="white"/>
</svg>
